<svg width="200" height="44" viewBox="0 0 200 44" fill="none" xmlns="http://www.w3.org/2000/svg">
<g id="CS Azul">
<g id="Group 912">
<g id="tipografia">
<path id="Vector" fill-rule="evenodd" clip-rule="evenodd" d="M73.7265 16.4193V21.5193C71.1548 23.1371 67.5495 21.767 65.708 19.6941C62.7234 16.5988 63.0573 8.84704 65.7845 5.79463C67.2819 4.16542 69.0074 3.36914 71.0439 3.36914C72.0227 3.36914 72.7988 3.53345 73.7265 3.77107V8.88875C70.4921 6.17255 68.3932 9.19968 68.3932 12.7033C68.3932 15.8214 69.8333 19.277 73.1161 17.0133C73.371 16.8414 73.5851 16.5229 73.7265 16.4193Z" fill="#1B294A"/>
<path id="Vector_2" fill-rule="evenodd" clip-rule="evenodd" d="M109.298 16.0445V21.8662H104.555V3.73633H109.302C113.478 3.73633 116.215 5.11149 116.215 9.85504C116.215 14.5986 113.772 16.0445 109.298 16.0445ZM109.298 7.55847V11.9203C110.685 11.9203 111.477 11.2656 111.477 9.85504C111.476 8.55571 110.658 7.55847 109.298 7.55847Z" fill="#1B294A"/>
<path id="Vector_3" fill-rule="evenodd" clip-rule="evenodd" d="M146.616 19.5691L146.311 21.8682H141.188L145.58 3.73828H151.203L155.219 21.8682H150.169L149.753 19.5691H146.616ZM147.233 15.6509H149.212L148.294 8.28971L147.233 15.6509Z" fill="#1B294A"/>
<path id="Vector_4" d="M171.534 3.73633H166.828V21.8662H171.534V3.73633Z" fill="#1B294A"/>
<path id="Vector_5" fill-rule="evenodd" clip-rule="evenodd" d="M187.688 3.73633H192.273L196.137 15.0574L195.407 9.35705V3.73633H199.999V21.8662H195.598L191.889 11.4944L192.273 16.4022V21.8662H187.688V3.73633Z" fill="#1B294A"/>
<path id="Vector_6" fill-rule="evenodd" clip-rule="evenodd" d="M124.375 37.1506V25.5098H129.265V37.6448C129.265 38.1757 129.335 38.5561 129.52 38.8203C129.708 39.0516 130 39.2045 130.367 39.2045C130.775 39.2045 131.067 39.0503 131.248 38.8203C131.435 38.5561 131.504 38.1757 131.504 37.6448V25.5098H136.435V37.1506C136.435 39.5079 135.954 41.2584 134.963 42.3656C134.006 43.4678 132.462 43.9999 130.367 43.9999C128.308 43.9999 126.764 43.4665 125.807 42.3656C124.854 41.2584 124.375 39.5079 124.375 37.1506Z" fill="#1B294A"/>
<path id="Vector_7" fill-rule="evenodd" clip-rule="evenodd" d="M123.04 33.0654C123.04 33.5912 123.076 34.1284 123.076 34.6643C123.076 37.8241 122.558 40.1877 121.564 41.712C120.608 43.2375 119.064 43.9997 116.965 43.9997C114.866 43.9997 113.25 43.1971 112.107 41.5249C110.966 39.8856 110.375 37.5599 110.375 34.5872C110.375 31.5423 110.966 29.2154 112.107 27.5786C113.283 25.9418 114.941 25.1367 117.073 25.1367C120.224 25.1367 121.936 26.6282 122.851 29.5592L118.623 31.0418C118.442 30.4326 118.214 29.9751 117.96 29.7122C117.702 29.4063 117.369 29.29 117.001 29.29C116.374 29.29 115.935 29.6338 115.713 30.358C115.457 31.0823 115.345 32.417 115.345 34.3597C115.345 36.2631 115.457 37.5953 115.713 38.3196C115.934 39.0046 116.374 39.3497 116.965 39.3497C117.406 39.3497 117.737 39.1563 117.96 38.7796C118.325 38.2273 118.325 37.3615 118.325 36.7194H116.853V33.0641H123.04V33.0654Z" fill="#1B294A"/>
<path id="Vector_8" fill-rule="evenodd" clip-rule="evenodd" d="M89.4075 37.5953C90.2779 38.3069 92.6751 40.108 93.8195 39.0046C94.8874 37.977 93.5761 36.8344 92.9006 36.1506C91.235 34.4595 89.4381 32.9339 89.4381 30.4022C89.4381 28.8767 89.9581 27.6203 90.9495 26.6306C93.0956 24.4895 96.2969 24.9496 98.782 26.1769V30.8964C97.9778 30.2152 96.8258 29.4505 95.7311 29.4505C95.0684 29.4505 94.5153 29.8145 94.5153 30.5147C94.5153 30.9723 94.9639 31.5082 95.7719 32.2274C96.8946 33.2334 97.9192 33.9198 98.7476 35.3505C99.9315 37.4879 99.5275 40.6603 97.788 42.3945C95.4138 44.691 91.9805 44.303 89.4062 42.6245V37.5953H89.4075Z" fill="#1B294A"/>
<path id="Vector_9" fill-rule="evenodd" clip-rule="evenodd" d="M100.523 25.5098H109.28V29.6605H105.225V32.3527H108.934V36.5085H105.225V39.2374H109.28V43.6295H100.523V25.5098Z" fill="#1B294A"/>
<path id="Vector_10" fill-rule="evenodd" clip-rule="evenodd" d="M143.579 39.6418L142.623 36.5995V43.6296H137.742V25.5098H143.353C143.434 25.5098 143.505 25.5098 143.579 25.5098C145.375 25.5452 146.808 26.0368 147.838 27.0265C148.938 28.0174 149.487 29.3812 149.487 31.0926C149.487 32.1568 149.231 33.0694 148.753 33.7936C148.276 34.5507 147.541 35.1599 146.553 35.6137L150.003 43.6308H144.827L143.579 39.6418ZM143.579 29.4216C143.353 29.3028 143.104 29.2662 142.805 29.2662H142.624V33.5964C142.991 33.5623 143.32 33.5206 143.58 33.4068C143.764 33.2969 143.945 33.1806 144.095 33.0277C144.387 32.6877 144.531 32.1555 144.531 31.4326C144.531 30.7121 144.387 30.1813 144.095 29.7996C143.943 29.6517 143.798 29.4962 143.579 29.4216Z" fill="#1B294A"/>
<path id="Vector_11" fill-rule="evenodd" clip-rule="evenodd" d="M164.477 37.5953C165.347 38.3069 167.744 40.108 168.891 39.0046C169.963 37.977 168.65 36.8344 167.972 36.1506C166.304 34.4595 164.516 32.9339 164.516 30.4022C164.516 28.8767 165.031 27.6203 166.02 26.6306C168.172 24.4895 171.371 24.9496 173.854 26.1769V30.8964C173.052 30.2152 171.901 29.4505 170.806 29.4505C170.143 29.4505 169.591 29.8145 169.591 30.5147C169.591 30.9723 170.038 31.5082 170.842 32.2274C171.97 33.2334 172.988 33.9198 173.819 35.3505C175.003 37.4879 174.603 40.6603 172.862 42.3945C170.49 44.691 167.056 44.303 164.477 42.6245V37.5953Z" fill="#1B294A"/>
<path id="Vector_12" fill-rule="evenodd" clip-rule="evenodd" d="M156.89 43.9997C154.827 43.9997 153.207 43.1592 152.067 41.5249C150.923 39.8856 150.336 37.5599 150.336 34.5872C150.336 31.5777 150.923 29.2546 152.067 27.6153C153.207 25.9418 154.827 25.1367 156.89 25.1367C158.988 25.1367 160.608 25.9418 161.752 27.5786C162.889 29.2546 163.441 31.5777 163.441 34.5872C163.441 37.5599 162.889 39.8856 161.752 41.5603C160.608 43.1971 158.988 43.9997 156.89 43.9997ZM156.89 29.5175C156.3 29.5175 155.895 29.8613 155.637 30.5906C155.414 31.2757 155.269 32.5712 155.269 34.4355C155.269 36.344 155.414 37.6333 155.637 38.3208C155.896 39.0059 156.3 39.3509 156.89 39.3509C157.515 39.3509 157.921 39.0046 158.142 38.3208C158.397 37.632 158.51 36.344 158.51 34.4355C158.51 32.527 158.397 31.2352 158.142 30.5476C157.921 29.8613 157.516 29.5175 156.89 29.5175Z" fill="#1B294A"/>
<path id="Vector_13" fill-rule="evenodd" clip-rule="evenodd" d="M117.805 3.73633H126.561V7.89341H122.51V10.5856H126.217V14.7414H122.51V17.4728H126.561V21.8662H117.805V3.73633Z" fill="#1B294A"/>
<path id="Vector_14" fill-rule="evenodd" clip-rule="evenodd" d="M134.053 17.8697L133.104 14.8337V21.8675H128.219V3.73633H133.832C133.908 3.73633 133.978 3.73633 134.052 3.73633C135.851 3.77677 137.287 4.27097 138.313 5.25431C139.413 6.2465 139.964 7.61282 139.964 9.32166C139.964 10.3884 139.711 11.2985 139.23 12.0227C138.754 12.7823 138.023 13.389 137.029 13.8478L140.484 21.8662H135.302L134.053 17.8697ZM134.053 7.65453C133.834 7.53825 133.581 7.49527 133.283 7.49527H133.104V11.8331C133.468 11.7914 133.796 11.7535 134.053 11.641C134.242 11.526 134.423 11.4135 134.569 11.2593C134.866 10.9205 135.009 10.3872 135.009 9.66292C135.009 8.94374 134.866 8.40784 134.569 8.03371C134.423 7.88077 134.277 7.7291 134.053 7.65453Z" fill="#1B294A"/>
<path id="Vector_15" fill-rule="evenodd" clip-rule="evenodd" d="M179.609 22.2314C177.546 22.2314 175.928 21.3896 174.785 19.7528C173.645 18.1148 173.055 15.7879 173.055 12.8176C173.055 9.80947 173.643 7.48509 174.785 5.8445C175.928 4.16852 177.546 3.36719 179.609 3.36719C181.705 3.36719 183.328 4.16852 184.466 5.80658C185.613 7.48383 186.162 9.8082 186.162 12.8164C186.162 15.7854 185.613 18.1123 184.466 19.792C183.328 21.4301 181.705 22.2314 179.609 22.2314ZM179.609 7.75431C179.02 7.75431 178.614 8.09304 178.357 8.82233C178.138 9.50233 177.989 10.8004 177.989 12.6672C177.989 14.5745 178.138 15.8675 178.357 16.5526C178.614 17.2414 179.02 17.5814 179.609 17.5814C180.236 17.5814 180.645 17.2401 180.86 16.5526C181.12 15.8675 181.229 14.5732 181.229 12.6672C181.229 10.7637 181.12 9.46821 180.86 8.78189C180.645 8.09304 180.236 7.75431 179.609 7.75431Z" fill="#1B294A"/>
<path id="Vector_16" fill-rule="evenodd" clip-rule="evenodd" d="M96.4618 22.2314C94.3985 22.2314 92.7813 21.3896 91.6369 19.7528C90.4988 18.1148 89.9062 15.7879 89.9062 12.8176C89.9062 9.80947 90.4988 7.48509 91.6369 5.8445C92.7813 4.16852 94.3998 3.36719 96.4618 3.36719C98.562 3.36719 100.179 4.16852 101.32 5.80658C102.463 7.48383 103.015 9.8082 103.015 12.8164C103.015 15.7854 102.463 18.1123 101.32 19.792C100.178 21.4301 98.562 22.2314 96.4618 22.2314ZM96.4618 7.75431C95.873 7.75431 95.469 8.09304 95.209 8.82233C94.9924 9.50233 94.8407 10.8004 94.8407 12.6672C94.8407 14.5745 94.9924 15.8675 95.209 16.5526C95.469 17.2414 95.873 17.5814 96.4618 17.5814C97.0849 17.5814 97.4927 17.2401 97.7119 16.5526C97.9706 15.8675 98.079 14.5732 98.079 12.6672C98.079 10.7637 97.9706 9.46821 97.7119 8.78189C97.4915 8.09304 97.0837 7.75431 96.4618 7.75431Z" fill="#1B294A"/>
<path id="Vector_17" fill-rule="evenodd" clip-rule="evenodd" d="M81.8199 22.2314C79.7566 22.2314 78.1381 21.3896 76.9937 19.7528C75.8544 18.1148 75.2656 15.7879 75.2656 12.8176C75.2656 9.80947 75.8544 7.48509 76.9937 5.8445C78.1381 4.16852 79.7566 3.36719 81.8199 3.36719C83.9162 3.36719 85.5385 4.16852 86.6779 5.80658C87.821 7.48383 88.369 9.8082 88.369 12.8164C88.369 15.7854 87.821 18.1123 86.6779 19.792C85.5385 21.4301 83.9175 22.2314 81.8199 22.2314ZM81.8199 7.75431C81.2285 7.75431 80.8245 8.09304 80.5684 8.82233C80.3466 9.50233 80.1975 10.8004 80.1975 12.6672C80.1975 14.5745 80.3454 15.8675 80.5684 16.5526C80.8245 17.2414 81.2285 17.5814 81.8199 17.5814C82.443 17.5814 82.8508 17.2401 83.0688 16.5526C83.3262 15.8675 83.4396 14.5732 83.4396 12.6672C83.4396 10.7637 83.3275 9.46821 83.0688 8.78189C82.8508 8.09304 82.443 7.75431 81.8199 7.75431Z" fill="#1B294A"/>
<path id="Vector_18" fill-rule="evenodd" clip-rule="evenodd" d="M165.137 16.4193V21.5193C162.562 23.1371 158.96 21.767 157.116 19.6941C154.129 16.5988 154.463 8.84704 157.192 5.79463C158.686 4.16542 160.418 3.36914 162.451 3.36914C163.432 3.36914 164.208 3.53345 165.137 3.77107V8.88875C161.899 6.17255 159.804 9.19968 159.804 12.7033C159.804 15.8214 161.244 19.277 164.524 17.0133C164.778 16.8414 164.991 16.5229 165.137 16.4193Z" fill="#1B294A"/>
</g>
<g id="Group 911">
<g id="Group">
<path id="Vector_19" d="M0 15.7533L12.9017 43.5785H14.0468L1.37415 13.709C0.877928 14.3904 0.419879 15.0719 0 15.7533Z" fill="#E29438"/>
<path id="Vector_20" d="M9.46875 5.9102L19.0878 43.5405H20.1566L11.5681 4.62305C10.8429 5.03948 10.1558 5.45591 9.46875 5.94806" fill="#E29438"/>
<path id="Vector_21" d="M2.67188 12.0434L15.0392 43.5787H16.0698L4.19871 10.3398C3.66432 10.9077 3.1681 11.4756 2.67188 12.0434Z" fill="#E29438"/>
<path id="Vector_22" d="M5.72567 8.90056L17.0242 43.578H18.093L7.55787 7.31055C6.90897 7.80269 6.29823 8.3327 5.6875 8.90056" fill="#E29438"/>
<path id="Vector_23" d="M48.0985 7.31055L37.6016 43.578H38.6703L49.9689 8.90056C49.3582 8.37056 48.7474 7.84055 48.0985 7.31055Z" fill="#E29438"/>
<path id="Vector_24" d="M54.2821 13.709L41.6094 43.5785H42.7927L55.6944 15.7533C55.2745 15.0719 54.8165 14.3526 54.3202 13.709" fill="#E29438"/>
<path id="Vector_25" d="M51.4571 10.3398L39.5859 43.5787H40.6165L52.9839 12.0434C52.4877 11.4756 51.9914 10.8698 51.4571 10.3398Z" fill="#E29438"/>
<path id="Vector_26" d="M44.0893 4.62379L35.5391 43.5791H36.6078L46.1887 5.91095C45.5016 5.45666 44.8146 5.00237 44.0893 4.58594" fill="#E29438"/>
<path id="Vector_27" d="M34.6587 43.5782L36.9871 31.3881C37.7123 29.9873 38.1322 28.473 38.1704 26.883V25.0659L42.2928 3.71427C41.5676 3.33569 40.8042 3.03283 40.0408 2.72997L38.2467 14.0493C38.1322 13.7843 37.8268 13.5193 37.1398 13.4815H37.1016C37.1016 13.4815 36.7581 13.4815 36.4909 13.5572L37.9414 1.97283C37.1779 1.74568 36.4145 1.51854 35.6511 1.32925L34.3915 14.9579C34.3915 14.9579 34.1624 15.2986 34.0479 15.4501L34.1625 8.14359C34.1625 7.38644 33.7807 6.74286 33.2082 6.36429L33.5517 0.874959C32.712 0.723529 31.9104 0.609957 31.0706 0.534242L30.9179 6.25072C30.6126 6.40215 30.3835 6.62929 30.1545 6.93215V4.58499C30.1545 3.71427 29.6583 2.95712 28.9331 2.54069V0.382812C28.5513 0.382812 28.1696 0.382812 27.7879 0.382812C27.4062 0.382812 27.0245 0.382812 26.6428 0.382812V2.57854C25.9557 2.99498 25.4977 3.71427 25.4977 4.58499V5.645C25.2687 5.34214 25.0015 5.07714 24.6579 4.92571L24.5434 0.534242C23.7037 0.609957 22.8639 0.723529 22.0623 0.874959L22.3295 5.19071C21.8333 5.60714 21.5279 6.21286 21.5279 6.85643V9.65788C21.2989 9.39288 21.0317 9.16574 20.7263 9.01431L20.0011 1.29139C19.2377 1.48068 18.4743 1.70782 17.7108 1.93497L18.6269 9.24145C18.1689 9.62003 17.8635 10.1879 17.8254 10.8315L17.6727 15.7529L15.6115 2.69212C14.848 2.99498 14.0846 3.33569 13.3594 3.67641L17.3673 24.6873L17.291 26.8452C17.291 28.8137 17.8254 30.6309 18.7796 32.1831L20.9554 43.616H21.986L21.1462 38.2403H34.4296L33.5899 43.616H34.6205L34.6587 43.5782Z" fill="#E29438"/>
</g>
<g id="Group_2">
<path id="Vector_28" d="M37.1374 14.0496C36.6412 14.0496 34.8472 14.2767 34.1601 16.851C33.8547 17.9489 33.9311 20.1825 33.9692 21.2803C33.7784 21.091 33.5875 20.9017 33.3967 20.7125L33.5875 8.14379C33.5875 7.27307 32.8623 6.55378 32.0225 6.55378C31.1828 6.55378 30.4193 7.27307 30.4193 8.14379L30.2667 18.971C30.0376 18.8953 29.8468 18.8574 29.6178 18.8196V4.54733C29.6178 3.6009 28.8162 2.84375 27.9001 2.84375C26.984 2.84375 26.1824 3.6009 26.1824 4.54733V18.7439C25.9534 18.7817 25.7243 18.8574 25.4953 18.8953L25.3426 6.81878C25.3426 5.94806 24.6174 5.26663 23.7776 5.26663C22.9379 5.26663 22.1745 5.98592 22.1745 6.81878L22.0599 20.9017C21.7927 21.1668 21.5637 21.3939 21.3347 21.6968V10.8317C21.3347 10.0367 20.6858 9.43094 19.8842 9.43094C19.0826 9.43094 18.4719 10.0745 18.4719 10.8317L17.9375 26.8454C17.9375 32.1454 22.289 36.4612 27.6329 36.4612C32.9768 36.4612 37.4428 32.1075 37.5955 26.8454L37.7481 14.5038C37.7481 14.1631 37.6718 14.0874 37.1756 14.0496" fill="#1B294A"/>
<path id="Vector_29" d="M22.0194 43.5777H33.6234L34.4631 38.1641H21.1797L22.0194 43.5777Z" fill="#1B294A"/>
</g>
<path id="Vector_30" d="M45.27 38.1648L35.0021 30.9341C35.7273 29.7226 36.109 28.3219 36.109 26.8076C36.109 22.2647 32.4065 18.5547 27.826 18.5547C23.2455 18.5547 19.5047 22.2269 19.5047 26.8076C19.5047 28.3219 19.9246 29.7226 20.6117 30.9341L10.3438 38.1648H45.27Z" fill="#FBFDFB"/>
<g id="Group_3">
<path id="Vector_31" d="M20.8416 30.8211L10.3828 38.1654H15.7267L24.277 29.4961H22.6738L20.9179 30.7454" fill="#6EC6E4"/>
<path id="Vector_32" d="M16.5312 38.1654H21.608L25.9976 29.4961H24.4708L16.5312 38.1654Z" fill="#6EC6E4"/>
<path id="Vector_33" d="M22.3281 38.1654H27.4812L27.7102 29.4961H26.2215L22.3281 38.1654Z" fill="#6EC6E4"/>
<path id="Vector_34" d="M31.4141 29.4961L39.9261 38.1654H45.2701L32.9791 29.4961H31.4141Z" fill="#6EC6E4"/>
<path id="Vector_35" d="M34.0841 38.1654H39.1608L31.2213 29.4961H29.6562L34.0841 38.1654Z" fill="#6EC6E4"/>
<path id="Vector_36" d="M28.2125 38.1654H33.3274L29.4721 29.4961H27.9453L28.2125 38.1654Z" fill="#6EC6E4"/>
</g>
<path id="Vector_37" d="M21.0697 30.7067C20.4208 29.5331 20.0391 28.2081 20.0391 26.8831C20.0391 22.6052 23.5126 19.1602 27.7877 19.1602C32.0629 19.1602 35.5364 22.643 35.5364 26.8831C35.5364 28.2081 35.1929 29.5331 34.544 30.6688L33.9714 30.366C34.5821 29.306 34.8875 28.0945 34.8875 26.8831C34.8875 22.9838 31.7193 19.7659 27.7877 19.7659C23.8561 19.7659 20.688 22.9459 20.688 26.8831C20.688 28.1324 20.9933 29.3438 21.6041 30.4038L21.0697 30.7067Z" fill="#1B2847"/>
<path id="Vector_38" d="M31.8726 29.305H30.2312L29.2769 26.6171L28.628 27.2607V29.2671H27.0249V27.2607L26.3378 26.6171L25.3835 29.305H23.7422L25.7271 23.8535L27.7883 25.8221L29.8495 23.8535L31.8344 29.305H31.8726ZM30.3839 29.1157H31.6054L29.8113 24.1942L27.8265 26.0871L25.8416 24.1942L24.0476 29.1157H25.269L26.2615 26.2764L27.1776 27.1471V29.04H28.399V27.1471L29.3533 26.2764L30.3457 29.1157H30.3839Z" fill="#1B2847"/>
<path id="Vector_39" d="M26.527 23.3628C25.8781 23.3628 25.3438 22.8328 25.3438 22.1892C25.3438 21.5456 25.8781 21.0156 26.527 21.0156C27.1759 21.0156 27.7103 21.5456 27.7103 22.1892C27.7103 22.8328 27.1759 23.3628 26.527 23.3628ZM26.527 21.2428C25.9927 21.2428 25.5346 21.6592 25.5346 22.2271C25.5346 22.7949 25.9545 23.2114 26.527 23.2114C27.0996 23.2114 27.5195 22.7949 27.5195 22.2271C27.5195 21.6592 27.0996 21.2428 26.527 21.2428Z" fill="#1B2847"/>
<path id="Vector_40" d="M26.5248 22.7935C26.1813 22.7935 25.9141 22.5285 25.9141 22.1877C25.9141 21.847 26.1813 21.582 26.5248 21.582C26.8683 21.582 27.1355 21.847 27.1355 22.1877C27.1355 22.5285 26.8683 22.7935 26.5248 22.7935ZM26.5248 21.6956C26.2576 21.6956 26.0286 21.9227 26.0286 22.1877C26.0286 22.4528 26.2576 22.6799 26.5248 22.6799C26.792 22.6799 27.021 22.4528 27.021 22.1877C27.021 21.9227 26.792 21.6956 26.5248 21.6956Z" fill="#1B2847"/>
<path id="Vector_41" d="M29.1208 23.3628C28.4719 23.3628 27.9375 22.8328 27.9375 22.1892C27.9375 21.5456 28.4719 21.0156 29.1208 21.0156C29.7697 21.0156 30.3041 21.5456 30.3041 22.1892C30.3041 22.8328 29.7697 23.3628 29.1208 23.3628ZM29.1208 21.2428C28.5864 21.2428 28.1284 21.6592 28.1284 22.2271C28.1284 22.7949 28.5482 23.2114 29.1208 23.2114C29.6934 23.2114 30.1132 22.7949 30.1132 22.2271C30.1132 21.6592 29.6934 21.2428 29.1208 21.2428Z" fill="#1B2847"/>
<path id="Vector_42" d="M29.1264 22.7935C28.7828 22.7935 28.5156 22.5285 28.5156 22.1877C28.5156 21.847 28.7828 21.582 29.1264 21.582C29.4699 21.582 29.7371 21.847 29.7371 22.1877C29.7371 22.5285 29.4699 22.7935 29.1264 22.7935ZM29.1264 21.6577C28.8592 21.6577 28.6301 21.8849 28.6301 22.1499C28.6301 22.4149 28.8592 22.642 29.1264 22.642C29.3936 22.642 29.6226 22.4149 29.6226 22.1499C29.6226 21.8849 29.3936 21.6577 29.1264 21.6577Z" fill="#1B2847"/>
<path id="Vector_43" d="M27.8241 24.8767C27.3661 24.8767 26.9844 24.4981 26.9844 24.0438C26.9844 23.5895 27.3661 23.2109 27.8241 23.2109C28.2822 23.2109 28.6639 23.5895 28.6639 24.0438C28.6639 24.4981 28.2822 24.8767 27.8241 24.8767ZM27.8241 23.3624C27.4424 23.3624 27.1371 23.6652 27.1371 24.0438C27.1371 24.4224 27.4424 24.7252 27.8241 24.7252C28.2058 24.7252 28.5112 24.4224 28.5112 24.0438C28.5112 23.6652 28.2058 23.3624 27.8241 23.3624Z" fill="#1B2847"/>
<path id="Vector_44" d="M27.8261 24.4989C27.5971 24.4989 27.4062 24.3096 27.4062 24.0824C27.4062 23.8553 27.5971 23.666 27.8261 23.666C28.0552 23.666 28.246 23.8553 28.246 24.0824C28.246 24.3096 28.0552 24.4989 27.8261 24.4989ZM27.8261 23.7039C27.6353 23.7039 27.4826 23.8553 27.4826 24.0446C27.4826 24.2339 27.6353 24.3853 27.8261 24.3853C28.017 24.3853 28.1697 24.2339 28.1697 24.0446C28.1697 23.8553 28.017 23.7039 27.8261 23.7039Z" fill="#1B2847"/>
</g>
</g>
</g>
</svg>
