<svg width="14" height="18" viewBox="0 0 14 18" fill="none" xmlns="http://www.w3.org/2000/svg">
<g id="#">
<path id="Vector" fill-rule="evenodd" clip-rule="evenodd" d="M2.60966 0H8.62994L13.7317 5.31755V15.6594C13.7317 16.9487 12.6803 18 11.3911 18H2.60966C1.31485 18 0.269043 16.9487 0.269043 15.6594V2.34061C0.269043 1.04581 1.31485 0 2.60966 0V0Z" fill="#00B8D9"/>
<path id="Vector_2" opacity="0.4" fill-rule="evenodd" clip-rule="evenodd" d="M8.62378 0V5.27329H13.7311L8.62378 0Z" fill="white"/>
<path id="Vector_3" d="M9.37121 11.7362H4.62912C4.40779 11.7362 4.23071 11.9133 4.23071 12.1346C4.23071 12.3504 4.40779 12.5275 4.62912 12.5275H9.37121C9.59255 12.5275 9.76962 12.3504 9.76962 12.1346C9.76962 11.9133 9.59255 11.7362 9.37121 11.7362ZM9.37121 13.3187H4.62912C4.40779 13.3187 4.23071 13.4958 4.23071 13.7172C4.23071 13.933 4.40779 14.11 4.62912 14.11H9.37121C9.59255 14.11 9.76962 13.9329 9.76962 13.7172C9.76962 13.4958 9.59255 13.3187 9.37121 13.3187ZM6.95866 8.57666H4.62912C4.40779 8.57666 4.23071 8.74819 4.23071 8.96952C4.23071 9.19086 4.40779 9.36238 4.62912 9.36238H6.95866C7.18 9.36238 7.35707 9.19086 7.35707 8.96952C7.35707 8.74819 7.18 8.57666 6.95866 8.57666ZM9.37121 10.1537H4.62912C4.40779 10.1537 4.23071 10.3307 4.23071 10.5521C4.23071 10.7679 4.40779 10.9449 4.62912 10.9449H9.37121C9.59255 10.9449 9.76962 10.7679 9.76962 10.5521C9.76962 10.3307 9.59255 10.1537 9.37121 10.1537Z" fill="white"/>
</g>
</svg>
