<svg width="14" height="18" viewBox="0 0 14 18" fill="none" xmlns="http://www.w3.org/2000/svg">
<g id="#">
<path id="Vector" fill-rule="evenodd" clip-rule="evenodd" d="M2.59338 0H8.61137L13.7118 5.31635V15.6567C13.7118 16.952 12.6638 18 11.373 18H2.59338C1.29803 18 0.250061 16.952 0.250061 15.6567V2.34332C0.250038 1.04797 1.29801 0 2.59338 0V0Z" fill="#B71D18"/>
<path id="Vector_2" opacity="0.4" fill-rule="evenodd" clip-rule="evenodd" d="M8.60687 0V5.27586H13.7118L8.60687 0Z" fill="white"/>
<path id="Vector_3" d="M2.85455 13.4304V10.1426H4.25336C4.59969 10.1426 4.87406 10.237 5.08095 10.4304C5.28784 10.6193 5.3913 10.8757 5.3913 11.1951C5.3913 11.5144 5.28784 11.7708 5.08095 11.9597C4.87406 12.1531 4.59969 12.2475 4.25336 12.2475H3.69563V13.4304H2.85455ZM3.69563 11.5324H4.15891C4.28483 11.5324 4.38379 11.5054 4.45127 11.4425C4.51872 11.384 4.55473 11.303 4.55473 11.1951C4.55473 11.0871 4.51875 11.0062 4.45127 10.9477C4.38381 10.8847 4.28486 10.8578 4.15891 10.8578H3.69563V11.5324ZM5.73761 13.4304V10.1426H6.90253C7.13191 10.1426 7.34781 10.1741 7.5502 10.2415C7.75259 10.309 7.93701 10.4035 8.09892 10.5339C8.26085 10.6598 8.39128 10.8307 8.48573 11.0466C8.57568 11.2625 8.62517 11.5099 8.62517 11.7888C8.62517 12.0631 8.5757 12.3105 8.48573 12.5264C8.39128 12.7423 8.26085 12.9132 8.09892 13.0391C7.93699 13.1696 7.75259 13.264 7.5502 13.3315C7.34781 13.3989 7.13191 13.4304 6.90253 13.4304H5.73761ZM6.5607 12.7153H6.80357C6.934 12.7153 7.05545 12.7018 7.16789 12.6703C7.27583 12.6388 7.37929 12.5894 7.47824 12.5219C7.57269 12.4544 7.64915 12.36 7.70312 12.234C7.75709 12.1081 7.78409 11.9597 7.78409 11.7888C7.78409 11.6133 7.75709 11.4649 7.70312 11.339C7.64915 11.2131 7.57269 11.1186 7.47824 11.0511C7.37929 10.9837 7.27585 10.9342 7.16789 10.9027C7.05545 10.8712 6.934 10.8577 6.80357 10.8577H6.5607V12.7153ZM9.04796 13.4304V10.1426H11.3868V10.8577H9.88904V11.384H11.0854V12.0946H9.88904V13.4304H9.04796Z" fill="white"/>
</g>
</svg>
