<svg width="14" height="14" viewBox="0 0 14 14" fill="none" xmlns="http://www.w3.org/2000/svg">
<g id="plus">
<path id="Vector" d="M7.29165 6.37484V1.1665C7.29165 1.00074 7.2258 0.841772 7.10859 0.724562C6.99138 0.607352 6.83241 0.541504 6.66665 0.541504C6.50089 0.541504 6.34192 0.607352 6.22471 0.724562C6.10749 0.841772 6.04165 1.00074 6.04165 1.1665V6.37484H0.833313C0.667553 6.37484 0.508581 6.44069 0.391371 6.5579C0.274161 6.67511 0.208313 6.83408 0.208313 6.99984C0.208313 7.1656 0.274161 7.32457 0.391371 7.44178C0.508581 7.55899 0.667553 7.62484 0.833313 7.62484H6.04165V12.8332C6.04381 12.9983 6.11035 13.156 6.22709 13.2727C6.34384 13.3895 6.50156 13.456 6.66665 13.4582C6.83241 13.4582 6.99138 13.3923 7.10859 13.2751C7.2258 13.1579 7.29165 12.9989 7.29165 12.8332V7.62484H12.5C12.6657 7.62484 12.8247 7.55899 12.9419 7.44178C13.0591 7.32457 13.125 7.1656 13.125 6.99984C13.1228 6.83475 13.0563 6.67703 12.9395 6.56028C12.8228 6.44354 12.6651 6.377 12.5 6.37484H7.29165Z" fill="white"/>
</g>
</svg>
