<svg width="13" height="14" viewBox="0 0 13 14" fill="none" xmlns="http://www.w3.org/2000/svg">
<g id="Vector">
<path d="M6.49944 0.500025C6.66112 0.49866 6.81919 0.553175 6.95177 0.656025L10.0713 3.10002C10.4213 3.37595 10.505 3.9143 10.2585 4.30468C10.1391 4.494 9.95658 4.62248 9.75155 4.66154C9.54651 4.7006 9.33593 4.64701 9.16663 4.51268L6.49944 2.44135L3.84785 4.66002C3.50328 4.9472 3.01445 4.8696 2.75602 4.48668C2.49759 4.10376 2.56742 3.56054 2.912 3.27335L6.03151 0.673359C6.16651 0.560846 6.3307 0.500025 6.49944 0.500025Z" fill="#132942"/>
<path d="M6.49944 2.23335C6.93016 2.23335 7.27932 2.62137 7.27932 3.10002L7.27932 10.0333C7.27932 10.512 6.93016 10.9 6.49944 10.9C6.06872 10.9 5.71956 10.512 5.71956 10.0333L5.71956 3.10002C5.71956 2.62137 6.06873 2.23335 6.49944 2.23335Z" fill="#132942"/>
<path d="M0 12.85C0 12.491 0.363769 12.2 0.8125 12.2H12.1875C12.6362 12.2 13 12.491 13 12.85C13 13.209 12.6362 13.5 12.1875 13.5H0.8125C0.363769 13.5 0 13.209 0 12.85Z" fill="#132942"/>
<path d="M0.8125 13.5C0.363769 13.5 0 13.209 0 12.85V11.55C0 11.191 0.363769 10.9 0.8125 10.9C1.26123 10.9 1.625 11.191 1.625 11.55V12.85C1.625 13.209 1.26123 13.5 0.8125 13.5Z" fill="#132942"/>
<path d="M12.1875 13.5C11.7388 13.5 11.375 13.209 11.375 12.85V11.55C11.375 11.191 11.7388 10.9 12.1875 10.9C12.6362 10.9 13 11.191 13 11.55V12.85C13 13.209 12.6362 13.5 12.1875 13.5Z" fill="#132942"/>
</g>
</svg>
